#!OML:ASF E:\Style4\Style4.ASF
:FULLY-SPECIFIED
:DEGREES
2111
root -0.0727348 17.1167 0.200283 -5.19685 12.0834 4.94275
lowerback 7.41005 4.59916 1.47913
upperback 6.77197 6.22913 0.0590527
thorax 3.03352 3.19971 -1.03771
lowerneck 7.0422 -3.09283 -4.16825
upperneck -1.34292 -4.36872 3.11122
head -1.46285 -2.22208 1.84399
rclavicle 5.02925e-014 -1.19271e-014
rhumerus 18.4898 11.1507 -79.5694
rradius 129.132
rwrist 24.23
rhand 22.4772 -4.7029
rfingers 7.12502
rthumb 46.8354 -27.4413
lclavicle 5.02925e-014 -1.19271e-014
lhumerus 25.9494 -15.664 77.6076
lradius 130.924
lwrist -14.2756
lhand 15.1825 40.4015
lfingers 7.12502
lthumb 40.0234 65.6205
rfemur -6.94782 -5.97113 13.9415
rtibia 45.0698
rfoot -29.9348 -18.0777
rtoes -9.57672
lfemur -9.47988 -5.93882 -24.0063
ltibia 41.4005
lfoot -24.1636 2.75333
ltoes -18.3118
2112
root -0.0699419 17.1186 0.196942 -5.18793 12.048 4.88336
lowerback 7.4171 4.59827 1.54743
upperback 6.77334 6.23118 0.0585397
thorax 3.03878 3.20347 -1.07605
lowerneck 6.96972 -3.12335 -4.17426
upperneck -1.288 -4.40658 3.14993
head -1.42996 -2.2417 1.85542
rclavicle 5.83433e-014 -1.19271e-014
rhumerus 18.5604 11.0897 -79.5434
rradius 129.098
rwrist 24.102
rhand 22.4374 -4.83225
rfingers 7.12502
rthumb 46.7986 -27.5867
lclavicle 5.83433e-014 -1.19271e-014
lhumerus 26.0171 -15.6806 77.5505
lradius 130.887
lwrist -14.3705
lhand 15.0513 40.3758
lfingers 7.12502
lthumb 39.9 65.6319
rfemur -6.97526 -6.00346 13.9855
rtibia 45.0379
rfoot -29.8379 -18.0922
rtoes -9.81812
lfemur -9.50957 -5.92222 -23.9453
ltibia 41.3848
lfoot -24.136 2.71484
ltoes -18.1982
2113
root -0.0672978 17.1209 0.19459 -5.21286 11.9836 4.85874
lowerback 7.45878 4.63562 1.59131
upperback 6.77838 6.28399 0.0333235
thorax 3.03083 3.23243 -1.13123
lowerneck 6.91552 -3.17776 -4.0431
upperneck -1.24955 -4.46744 3.11557
head -1.40847 -2.27197 1.82043
rclavicle -4.27387e-015 7.95139e-016
rhumerus 18.5718 10.9527 -79.5456
rradius 129.045
rwrist 24.0879
rhand 22.3118 -4.81991
rfingers 7.12502
rthumb 46.6823 -27.6248
lclavicle -4.27387e-015 7.95139e-016
lhumerus 26.0838 -15.7806 77.5074
lradius 130.879
lwrist -14.437
lhand 14.8518 40.4478
lfingers 7.12502
lthumb 39.7121 65.76
rfemur -6.96525 -5.98576 13.9907
rtibia 45.0101
rfoot -29.8198 -18.0089
rtoes -9.57851
lfemur -9.47209 -5.88148 -23.9245
ltibia 41.3696
lfoot -24.1387 2.67347
ltoes -17.9237
2114
root -0.0650354 17.123 0.192253 -5.23044 11.8998 4.83092
lowerback 7.48346 4.68888 1.63092
upperback 6.78049 6.35749 0.0104416
thorax 3.02931 3.2715 -1.18114
lowerneck 6.94262 -3.22149 -3.92641
upperneck -1.26716 -4.51684 3.10537
head -1.41931 -2.29715 1.79906
rclavicle 1.39149e-015 -2.38542e-015
rhumerus 18.5689 10.8022 -79.5637
rradius 128.987
rwrist 24.1416
rhand 22.2684 -4.71483
rfingers 7.12502
rthumb 46.6421 -27.5371
lclavicle 1.39149e-015 -2.38542e-015
lhumerus 26.1334 -15.8852 77.5051
lradius 130.837
lwrist -14.3937
lhand 14.6636 40.4584
lfingers 7.12502
lthumb 39.5349 65.8231
rfemur -6.97312 -5.95734 14.0069
rtibia 44.9854
rfoot -29.7989 -17.9569
rtoes -9.52898
lfemur -9.44414 -5.81543 -23.8971
ltibia 41.363
lfoot -24.1807 2.72442
ltoes -18.091
2115
root -0.0629374 17.1233 0.189665 -5.22141 11.8362 4.79465
lowerback 7.51539 4.6988 1.65304
upperback 6.75165 6.3718 0.0126225
thorax 2.98419 3.27881 -1.19619
lowerneck 6.98729 -3.2242 -3.89422
upperneck -1.25434 -4.51988 3.08481
head -1.42392 -2.29867 1.78782
rclavicle 6.07287e-014 -1.19271e-014
rhumerus 18.5263 10.7967 -79.6105
rradius 128.975
rwrist 24.1388
rhand 22.288 -4.65614
rfingers 7.12502
rthumb 46.6603 -27.4706
lclavicle 6.07287e-014 -1.19271e-014
lhumerus 26.1037 -15.8794 77.5064
lradius 130.791
lwrist -14.2548
lhand 14.6757 40.422
lfingers 7.12502
lthumb 39.5463 65.7833
rfemur -7.01192 -5.95914 14.0375
rtibia 44.9758
rfoot -29.7575 -17.9781
rtoes -9.77307
lfemur -9.46654 -5.774 -23.8554
ltibia 41.3542
lfoot -24.2139 2.71956
ltoes -18.0659
2116
root -0.0605531 17.1242 0.187236 -5.21385 11.7891 4.76508
lowerback 7.5053 4.69224 1.65154
upperback 6.77888 6.36246 0.0306638
thorax 3.01573 3.27405 -1.17405
lowerneck 6.91469 -3.2367 -3.96548
upperneck -1.2081 -4.53978 3.11226
head -1.39358 -2.30859 1.80668
rclavicle -1.23246e-014 1.43125e-014
rhumerus 18.591 10.8472 -79.6408
rradius 128.961
rwrist 24.1811
rhand 22.2707 -4.69347
rfingers 7.12502
rthumb 46.6443 -27.5148
lclavicle -1.23246e-014 1.43125e-014
lhumerus 26.145 -15.7436 77.5277
lradius 130.826
lwrist -13.9078
lhand 14.9519 40.439
lfingers 7.12502
lthumb 39.8064 65.7232
rfemur -7.03812 -5.96489 14.0511
rtibia 44.9671
rfoot -29.7465 -17.915
rtoes -9.83358
lfemur -9.48138 -5.72816 -23.8204
ltibia 41.3476
lfoot -24.1696 2.67055
ltoes -17.8791
2117
root -0.0585094 17.125 0.185009 -5.1881 11.7644 4.76903
lowerback 7.44545 4.63395 1.56839
upperback 6.86803 6.2796 0.0647188
thorax 3.12609 3.22982 -1.08008
lowerneck 6.70178 -3.19659 -4.13371
upperneck -1.17767 -4.49205 3.15996
head -1.34414 -2.28387 1.84383
rclavicle 4.18442e-014 -2.78299e-014
rhumerus 18.7904 11.0365 -79.6005
rradius 128.949
rwrist 24.1793
rhand 22.2383 -4.76251
rfingers 7.12502
rthumb 46.6142 -27.5968
lclavicle 4.18442e-014 -2.78299e-014
lhumerus 26.2337 -15.4178 77.5625
lradius 130.901
lwrist -13.4095
lhand 15.3301 40.5628
lfingers 7.12502
lthumb 40.1623 65.7397
rfemur -7.08762 -6.00051 14.0257
rtibia 44.9704
rfoot -29.7538 -17.856
rtoes -9.94886
lfemur -9.50218 -5.68606 -23.8234
ltibia 41.3369
lfoot -24.155 2.6236
ltoes -17.8851
2118
root -0.0577062 17.1262 0.181563 -5.15649 11.7309 4.74298
lowerback 7.43218 4.59836 1.54514
upperback 6.8726 6.23073 0.0655166
thorax 3.13382 3.2043 -1.06328
lowerneck 6.71813 -3.16596 -4.12518
upperneck -1.2064 -4.4519 3.12572
head -1.35865 -2.26311 1.83129
rclavicle -5.00937e-014 1.82882e-014
rhumerus 18.8267 11.1136 -79.6409
rradius 128.957
rwrist 24.1689
rhand 22.2433 -4.71224
rfingers 7.12502
rthumb 46.6189 -27.5446
lclavicle -5.00937e-014 1.82882e-014
lhumerus 26.1863 -15.2741 77.5481
lradius 130.938
lwrist -13.1658
lhand 15.4964 40.6479
lfingers 7.12502
lthumb 40.3187 65.777
rfemur -7.14737 -5.98995 14.0553
rtibia 44.9616
rfoot -29.716 -17.8693
rtoes -9.83511
lfemur -9.55274 -5.67968 -23.7881
ltibia 41.3328
lfoot -24.1571 2.59356
ltoes -17.6906
